<svg id="Layer_1" data-name="Layer 1" xmlns="http://www.w3.org/2000/svg" viewBox="0 0 690.36 749.53"><defs><style>.cls-1{fill:#ffb6b6;}.cls-2{fill:#2f2e41;}.cls-3{fill:#f0f0f0;}.cls-4{fill:#fff;}.cls-5{fill:#3f3d56;}.cls-6{fill:#e4e4e4;}.cls-7{fill:#ef4444;}.cls-8{fill:#9e616a;}.cls-9{fill:#e6e6e6;}.cls-10{opacity:0.2;isolation:isolate;}</style></defs><path d="M581.76,741.15,414.35,439.31a4.53,4.53,0,0,0-2.24-3.61,4.43,4.43,0,0,0-2.42-.58h-.16a4.44,4.44,0,0,0-4.63,4.05l-177.44,302a4.5,4.5,0,0,0,7.79,4.51h0L409.49,449.11,574,745.65a4.5,4.5,0,0,0,7.8-4.49Z" transform="translate(-95.76 0)"/><polygon class="cls-1" points="286.11 689.36 305.04 685.02 297.29 609.97 269.37 616.37 286.11 689.36"/><path class="cls-2" d="M396.5,653.1l-26.93,6.18L361,642.46l-.49-.6a26.74,26.74,0,0,1-6-16.58l-22.38-59.21-1.83-.87A11,11,0,0,1,325,550.52a9.47,9.47,0,0,1,.69-1.25L323.35,543l-66.86.12-.07,0-82.1-23,8.62-51.39L206,483.21c7.61-.49,138-8.5,150,20.72,10.73,26,26.18,70.46,37.26,103.17a25.78,25.78,0,0,0,2.05,4.23,18.41,18.41,0,0,1,2.93,8.86,22.42,22.42,0,0,0,.79,4.06c4.6,13.76-2.41,28.49-2.48,28.64Z" transform="translate(-95.76 0)"/><path class="cls-2" d="M375.48,683.09l6.15-1.42,21.78-15.27,15.11,6.81h0a28.15,28.15,0,0,1,33.72,21.14l.21.89L382,711.41Z" transform="translate(-95.76 0)"/><path class="cls-3" d="M96.09,684.77c1.92-20.94,14.19-41.9,33.86-49.33a96.86,96.86,0,0,0,2.14,66.49c3.32,8.17,7.87,16.91,5.26,25.33-1.62,5.24-5.87,9.35-10.68,12s-10.21,4-15.53,5.32l-1,.91C101,726.54,94.16,705.71,96.09,684.77Z" transform="translate(-95.76 0)"/><path class="cls-4" d="M130.16,635.83a82.8,82.8,0,0,0-19.08,47.24,35.72,35.72,0,0,0,.76,11.15,20.51,20.51,0,0,0,5.39,9.32c2.37,2.44,5.08,4.67,6.82,7.65a12.52,12.52,0,0,1,.94,10.2c-1.31,4.19-4.06,7.67-6.86,11-3.11,3.67-6.4,7.43-7.62,12.2-.15.58-1,.32-.89-.26,2.12-8.3,10-13.23,13.53-20.77,1.67-3.51,2.28-7.55.5-11.15-1.56-3.14-4.35-5.44-6.78-7.89a21.75,21.75,0,0,1-5.6-8.92,32.64,32.64,0,0,1-1.19-11.08,80,80,0,0,1,5.08-24.59,84.45,84.45,0,0,1,14.36-24.76c.39-.46,1,.22.64.68Z" transform="translate(-95.76 0)"/><path class="cls-4" d="M111.15,677.46a12.43,12.43,0,0,1-9.87-12.71.46.46,0,0,1,.92,0,11.52,11.52,0,0,0,9.21,11.8c.58.12.32,1-.26.89Z" transform="translate(-95.76 0)"/><path class="cls-4" d="M115.87,702.46a24,24,0,0,0,10.24-14.13c.15-.58,1-.32.89.26a24.9,24.9,0,0,1-10.69,14.68c-.51.32-1-.49-.44-.81Z" transform="translate(-95.76 0)"/><path class="cls-4" d="M119.39,651.75a7,7,0,0,0,6.65-.55c.5-.33.94.49.44.81a7.89,7.89,0,0,1-7.36.63.48.48,0,0,1-.31-.58.47.47,0,0,1,.58-.31Z" transform="translate(-95.76 0)"/><path class="cls-3" d="M191.78,670.75l-.92.64A93.13,93.13,0,0,0,179.32,681l-.83.82a97.59,97.59,0,0,0-20.27,29.7,94.74,94.74,0,0,0-4.76,13.59c-1.71,6.42-3.05,13.52-6.68,18.84a17.21,17.21,0,0,1-1.21,1.6l-34.27,1.1-.24-.1-1.37.11.15-.74.09-.43c0-.09,0-.19,0-.27a.51.51,0,0,0,0-.09c0-.09,0-.17,0-.24.3-1.42.61-2.83.93-4.24h0a139.19,139.19,0,0,1,10.74-31.17c.14-.29.29-.59.45-.89A90.48,90.48,0,0,1,129.91,696a78.62,78.62,0,0,1,5.13-6.26,66.24,66.24,0,0,1,16.24-13c12.08-6.88,26.23-9.83,39.49-6.29Z" transform="translate(-95.76 0)"/><path class="cls-4" d="M191.72,671.18A82.81,82.81,0,0,0,148,697.42a35.55,35.55,0,0,0-6.11,9.36,20.42,20.42,0,0,0-1.3,10.68c.42,3.38,1.24,6.79.84,10.22a12.6,12.6,0,0,1-5.39,8.71C132.5,739,128.22,740.07,124,741c-4.7,1.06-9.59,2.08-13.44,5.16-.46.37-1-.37-.55-.74,6.7-5.36,15.92-4.58,23.31-8.44,3.44-1.8,6.37-4.66,7.11-8.6.65-3.45-.2-7-.66-10.39a21.84,21.84,0,0,1,.89-10.49,33.06,33.06,0,0,1,5.72-9.56,80.29,80.29,0,0,1,18.87-16.58,84.37,84.37,0,0,1,26.38-11.12c.57-.13.67.79.1.92Z" transform="translate(-95.76 0)"/><path class="cls-4" d="M151.47,693a12.43,12.43,0,0,1-.23-16.09c.38-.46,1.11.11.73.57a11.49,11.49,0,0,0,.25,15C152.61,692.87,151.86,693.42,151.47,693Z" transform="translate(-95.76 0)"/><path class="cls-4" d="M140.19,715.78a24,24,0,0,0,16.68-5.11c.47-.38,1,.37.56.74a24.88,24.88,0,0,1-17.38,5.28c-.59,0-.46-1,.14-.91Z" transform="translate(-95.76 0)"/><path class="cls-4" d="M173.53,677.41a7,7,0,0,0,5.64,3.56c.6,0,.46,1-.14.92a7.88,7.88,0,0,1-6.25-3.93.48.48,0,0,1,.1-.65.47.47,0,0,1,.65.1Z" transform="translate(-95.76 0)"/><path class="cls-3" d="M656.74,684.77c-1.93-20.94-14.2-41.9-33.87-49.33a96.86,96.86,0,0,1-2.14,66.49c-3.32,8.17-7.87,16.91-5.26,25.33,1.62,5.24,5.87,9.35,10.68,12s10.21,4,15.53,5.32l1,.91C651.84,726.54,658.66,705.71,656.74,684.77Z" transform="translate(-95.76 0)"/><path class="cls-4" d="M622.66,635.83a82.8,82.8,0,0,1,19.08,47.24,35.72,35.72,0,0,1-.76,11.15,20.51,20.51,0,0,1-5.39,9.32c-2.37,2.44-5.08,4.67-6.82,7.65a12.52,12.52,0,0,0-.94,10.2c1.31,4.19,4.06,7.67,6.86,11,3.11,3.67,6.4,7.43,7.62,12.2.15.58,1,.32.89-.26-2.12-8.3-10-13.23-13.53-20.77-1.67-3.51-2.28-7.55-.5-11.15,1.56-3.14,4.35-5.44,6.78-7.89a21.88,21.88,0,0,0,5.61-8.92,32.88,32.88,0,0,0,1.18-11.08,80,80,0,0,0-5.08-24.59,84.45,84.45,0,0,0-14.36-24.76c-.39-.46-1,.22-.64.68Z" transform="translate(-95.76 0)"/><path class="cls-4" d="M641.67,677.46a12.43,12.43,0,0,0,9.87-12.71.46.46,0,0,0-.92,0,11.52,11.52,0,0,1-9.21,11.8C640.83,676.69,641.09,677.58,641.67,677.46Z" transform="translate(-95.76 0)"/><path class="cls-4" d="M637,702.46a24,24,0,0,1-10.24-14.13c-.15-.58-1-.32-.89.26a24.9,24.9,0,0,0,10.69,14.68c.51.32,1-.49.44-.81Z" transform="translate(-95.76 0)"/><path class="cls-4" d="M633.43,651.75a7,7,0,0,1-6.65-.55c-.5-.33-.94.49-.44.81a7.89,7.89,0,0,0,7.36.63.48.48,0,0,0,.31-.58.47.47,0,0,0-.58-.31Z" transform="translate(-95.76 0)"/><path class="cls-3" d="M561,670.75l.92.64A93.13,93.13,0,0,1,573.5,681l.83.82a97.59,97.59,0,0,1,20.27,29.7,94.74,94.74,0,0,1,4.76,13.59c1.71,6.42,3,13.52,6.68,18.84a15.71,15.71,0,0,0,1.22,1.6l34.26,1.1.24-.1,1.37.11-.15-.74-.09-.43c0-.09,0-.19,0-.27a.51.51,0,0,1,0-.09c0-.09,0-.17-.05-.24-.3-1.42-.61-2.83-.93-4.24h0a139.19,139.19,0,0,0-10.74-31.17c-.14-.29-.29-.59-.45-.89A90.48,90.48,0,0,0,622.91,696a78.62,78.62,0,0,0-5.13-6.26,66.38,66.38,0,0,0-16.23-13c-12.09-6.88-26.24-9.83-39.5-6.29Z" transform="translate(-95.76 0)"/><path class="cls-4" d="M561.1,671.18a82.81,82.81,0,0,1,43.68,26.24,35.55,35.55,0,0,1,6.11,9.36,20.42,20.42,0,0,1,1.3,10.68c-.42,3.38-1.24,6.79-.84,10.22a12.6,12.6,0,0,0,5.39,8.71c3.58,2.56,7.86,3.68,12.09,4.63,4.7,1.06,9.59,2.08,13.44,5.16.46.37,1-.37.55-.74-6.69-5.36-15.92-4.58-23.31-8.44-3.44-1.8-6.37-4.66-7.11-8.6-.65-3.45.2-7,.66-10.39a21.84,21.84,0,0,0-.89-10.49,33.06,33.06,0,0,0-5.72-9.56,80.29,80.29,0,0,0-18.87-16.58,84.37,84.37,0,0,0-26.38-11.12c-.57-.13-.67.79-.1.92Z" transform="translate(-95.76 0)"/><path class="cls-4" d="M601.35,693a12.43,12.43,0,0,0,.23-16.09c-.38-.46-1.11.11-.73.57a11.49,11.49,0,0,1-.25,15C600.21,692.87,601,693.42,601.35,693Z" transform="translate(-95.76 0)"/><path class="cls-4" d="M612.63,715.78A24,24,0,0,1,596,710.67c-.47-.38-1,.37-.56.74a24.88,24.88,0,0,0,17.38,5.28c.59,0,.46-1-.14-.91Z" transform="translate(-95.76 0)"/><path class="cls-4" d="M579.29,677.41a7,7,0,0,1-5.64,3.56c-.6,0-.46,1,.14.92A7.88,7.88,0,0,0,580,678a.48.48,0,0,0-.1-.65.48.48,0,0,0-.65.1Z" transform="translate(-95.76 0)"/><circle class="cls-5" cx="478.35" cy="283.5" r="4.5"/><path class="cls-6" d="M517.76,318.16l60.67-38.11a4.79,4.79,0,1,1,5.1,8.12,2.82,2.82,0,0,1-.38.21l-63.86,32.47a1.55,1.55,0,0,1-1.53-2.69Z" transform="translate(-95.76 0)"/><path class="cls-7" d="M396.05,400.23a4.2,4.2,0,0,1,.07-4.79,9.91,9.91,0,0,1,4-3.14A32.74,32.74,0,0,1,410.44,389c2.74-.39,5.73-.52,7.85-2.29s3.29-5.05,6-5.33,4.68,2.63,7.33,2.81c3.27.22,5.41-3.6,8.59-4.39,2.13-.52,4.32.4,6.32,1.31l12,5.44,6.15,2.78c2.14,1,4.57,2.29,5,4.61.56,3.19-3,5.44-6,6.57a96.94,96.94,0,0,1-67.13,0" transform="translate(-95.76 0)"/><ellipse cx="318.35" cy="436.5" rx="157.5" ry="22.5"/><path d="M625.61,576h108a9,9,0,0,1,9,9h0a9,9,0,0,1-9,9h-108a9,9,0,0,1-9-9h0A9,9,0,0,1,625.61,576Z" transform="translate(-95.76 0)"/><path d="M786,415.54,750.28,585l9.29,43.37,17.54,81.85V747a.76.76,0,0,1,0,.15,6.69,6.69,0,0,1-.44,2.38h-14.1a7.16,7.16,0,0,1-.44-2.38.76.76,0,0,1,0-.15V711.79L746.19,637.5l-3.22-15-6.23-29.07-1.8-8.42h0l1.78-8.44,1.37-6.51,33.18-157.59A7.5,7.5,0,1,1,786,415.52v0Z" transform="translate(-95.76 0)"/><path d="M633.11,585V747a.76.76,0,0,1,0,.15,6.69,6.69,0,0,1-.44,2.38h-14.1a7.16,7.16,0,0,1-.44-2.38.76.76,0,0,1,0-.15V585a7.5,7.5,0,0,1,15,0Z" transform="translate(-95.76 0)"/><path d="M643.61,558h72a27,27,0,0,1,27,27h-126A27,27,0,0,1,643.61,558Z" transform="translate(-95.76 0)"/><path d="M751.61,637.5h-126a7.5,7.5,0,0,1,0-15h126a7.5,7.5,0,1,1,0,15Z" transform="translate(-95.76 0)"/><rect x="60.76" y="573.55" width="145.09" height="20.73" rx="9"/><path d="M164.21,584l-2.3,9.48-8.44,34.72-3.64,15-16.9,69.58V743a7.32,7.32,0,0,1-1.26,4.15,7.24,7.24,0,0,1-2.57,2.38h-7.34a7.24,7.24,0,0,1-2.57-2.38,7.47,7.47,0,0,1-1.26-4.15V711l18.78-77.3,12.12-49.92-41.1-195.25a7.5,7.5,0,0,1,14.67-3.09h0l38,180.43,1.75,8.32,2,9.7Z" transform="translate(-95.76 0)"/><path d="M298.75,583.91V743a7.32,7.32,0,0,1-1.26,4.15,7.24,7.24,0,0,1-2.57,2.38h-7.35a7.3,7.3,0,0,1-2.56-2.38,7.47,7.47,0,0,1-1.26-4.15V583.91a7.5,7.5,0,0,1,15,0Z" transform="translate(-95.76 0)"/><path d="M301.61,583.91H156.52v-4.09a27,27,0,0,1,27-27h91.09a27,27,0,0,1,27,27v4.09Z" transform="translate(-95.76 0)"/><path d="M291.25,643.23H146.16a7.5,7.5,0,1,1,0-15H291.25a7.5,7.5,0,0,1,0,15Z" transform="translate(-95.76 0)"/><polygon class="cls-8" points="381.95 708.65 366.19 701.11 387.84 635.22 411.11 646.35 381.95 708.65"/><polygon class="cls-8" points="488.78 702.68 471.83 706.87 447.27 642.02 472.29 635.85 488.78 702.68"/><path class="cls-8" d="M519.58,422.27a16.43,16.43,0,0,0,22.26,5.58,15.74,15.74,0,0,0,2.11-1.53l49.84,28.6-2.17-29.36-47-22.66a16.38,16.38,0,0,0-19.86-2.58,15.76,15.76,0,0,0-5.4,21.62Z" transform="translate(-95.76 0)"/><path class="cls-9" d="M572.36,444.15l8.81,5.37,39.56,24.13a23.33,23.33,0,0,0,32.15-7.41l0,0a22.83,22.83,0,0,0,2.9-16.11l-17.58-87.85a24.38,24.38,0,0,0-28.47-19.45,25.18,25.18,0,0,0-3.53.95A23.19,23.19,0,0,0,591.58,372L610,434.3l-28.18-13.14Z" transform="translate(-95.76 0)"/><path class="cls-2" d="M551.53,684.51l-27.12-54.4V630l2.68-99.78c0-.89.1-1.78.21-2.66a30.36,30.36,0,0,1,11.55-20.42,29.18,29.18,0,0,1,21.75-5.95l77.56,10,2.69-11,.5-.18,74.32-27.24.43.7c9.73,15.83,16.53,47.47,18.39,56.79l0,.13c0,.2.07.31.07.35,3.83,15.9-12,42.24-27.72,46.2-33.18,8.45-62.84,1.86-97.19-5.78-12.32-2.74-25-5.57-39.07-8l.42,8.26A61.82,61.82,0,0,0,574.93,590c2.5,7.32,4.47,13.1.3,25.16l-2,5.84a19.87,19.87,0,0,1-2.05,17.63l-.4.62,17.89,45.26Z" transform="translate(-95.76 0)"/><path class="cls-2" d="M507,660.45l-32.35-3,11.46-36.65a239.21,239.21,0,0,1,17.67-69.52l15.63-37c0-.82.11-1.65.21-2.47a30.36,30.36,0,0,1,11.55-20.42,29.18,29.18,0,0,1,21.75-6l77.45,10,3.37-28.31L708,457.16l.35.56c13,21.14,21.24,37.69,26,52.08.24.74.45,1.48.63,2.23,3.85,16-5.76,32.24-21.43,36.18-39.94,10.18-88,9.9-151.1-.89L531.88,620a111.36,111.36,0,0,1-10.79,19.8Z" transform="translate(-95.76 0)"/><ellipse class="cls-8" cx="524.03" cy="255.04" rx="37.47" ry="38.3"/><path class="cls-6" d="M630.61,496.76l-5.38-19.26-1.32-9.5-7.73.26-15.16-35L595.13,424c-1.2-1.26-2.29-2.48-3.27-3.64a82.58,82.58,0,0,1-14.55-23.44,61.52,61.52,0,0,1-4.26-19.3c-1.1-19.56,7.14-40.25,25.2-63.26a10.85,10.85,0,0,1-.58-2.52,10.65,10.65,0,0,1,9.27-11.81l17.42-2a10.31,10.31,0,0,1,7.63,2.22,10.72,10.72,0,0,1,3.94,7.26,10.86,10.86,0,0,1-1.23,6.32,46.51,46.51,0,0,1,38.61,32.49,309.09,309.09,0,0,1,24.78,61.2c1.2,4.16.66,8.45.15,12.59-.47,3.83-1,7.78-.14,11.73s2.86,8,5,12.29c2.45,4.88,5,9.93,5.67,15.07l0,.36Z" transform="translate(-95.76 0)"/><path class="cls-10" d="M577.77,396.75a81.88,81.88,0,0,0,14.48,23.3c1,1.25,2.15,2.48,3.3,3.71l5.93,9.3C623.33,416.68,641,352.2,641,352.2l-24.65-4.8Z" transform="translate(-95.76 0)"/><path class="cls-8" d="M562.85,296.92a16.47,16.47,0,0,1-5.56,22.29,17,17,0,0,1-2.35,1.15l1.74,57.43-24.87-15.65L534,310A16.42,16.42,0,0,1,541,291.23a15.73,15.73,0,0,1,21.59,5.31Z" transform="translate(-95.76 0)"/><path class="cls-9" d="M558.87,356.11,531.52,360l1.18,56.64a23.69,23.69,0,0,0,11.58,20h0a22.72,22.72,0,0,0,27.13-3.08L636,371.42a24.48,24.48,0,0,0,1.81-33.62h0a23.23,23.23,0,0,0-32.73-2.75l-.54.48a22.2,22.2,0,0,0-1.82,1.81l-42.64,49.05Z" transform="translate(-95.76 0)"/><polygon class="cls-1" points="234.34 725.57 253.76 725.57 263 650.68 234.34 650.68 234.34 725.57"/><circle class="cls-1" cx="220.06" cy="255.7" r="38.75" transform="translate(-163.35 431.96) rotate(-80.78)"/><path class="cls-2" d="M355.85,702.5H328.36l-7-9.4-1.89-8.85-1.64-1.58a13.62,13.62,0,0,1-2.29-16.76L295.6,573c-5.22-.46-64.07-5.72-105-13-10.47-1.85-18.64-6.94-24.29-15.13-13.89-20.11-7.94-52.65-7.88-53l.07-.37.37,0,95.55-10.72.13.06c3.17,1.5,77.8,36.93,90,49.13,5.5,5.5,17.79,38.22,20.54,73,.49,6.23-1.28,12.58-3,18.72-1.6,5.74-3.26,11.68-2.93,17.29.5,8.66,1,17.75,1.42,27,.07,1.47,1.19,3,2.26,4.47s2.18,3,2.25,4.53c.65,14.78-9,27.21-9.11,27.33Z" transform="translate(-95.76 0)"/><path class="cls-1" d="M362.11,358.91a14.74,14.74,0,0,0-18.59,12.91l-32.19,10.06,1.34,21.05,45.27-14.84a14.84,14.84,0,0,0,4.17-29.18Z" transform="translate(-95.76 0)"/><path class="cls-7" d="M341.11,393.75l-24.06,9.11-.62,1.19a12.14,12.14,0,0,1-16.35,5.23h0L246,429.75S221.84,405.58,204.64,384L210.5,348A69.1,69.1,0,0,1,219,324.24c35.26,7.73,55.51,57,55.51,57l63.55-12.13Z" transform="translate(-95.76 0)"/><path class="cls-2" d="M214.55,292.38c-9.7,2.62-20.39-.86-28-7.47s-12.31-16-15-25.64c-2-7.08-2.94-14.95.21-21.59S183.4,226.54,190,229.9c-4-4.71-2-12.49,2.7-16.52s11.19-5.18,17.36-5.81c9-.91,18.21-1,26.73,1.88s16.26,9.25,18.93,17.84a13.57,13.57,0,0,0,16.19-3.65A12.3,12.3,0,0,1,265.08,237l13.06-4.24c2.24,4.76-1.69,10.64-6.72,12.16s-10.46-.14-15.24-2.34-9.4-5-14.58-5.84-11.28.81-13.68,5.49c-1.26,2.45-1.32,5.32-2,8s-2.58,5.41-5.32,5.63c-1.74.13-3.43-.79-5.16-.6-2.15.23-3.79,2.17-4.36,4.25a16.37,16.37,0,0,0,0,6.43l3.31,25.34" transform="translate(-95.76 0)"/><path class="cls-7" d="M166.55,549.5h0l-.31,0-.09-.3c-1.11-3.74-2.53-7.58-3.9-11.29a137.59,137.59,0,0,1-5.11-15.74,120.68,120.68,0,0,1-2.25-15.49c-.38-3.78-.78-7.69-1.45-11.53-.3-1.71.83-3.33,1.93-4.9s2-2.82,1.77-4.11-1.68-2.79-3.1-4.19-3.17-3.14-3.4-4.82a480.47,480.47,0,0,1-4.32-69.17c.32-32,1.76-53.81,4.29-64.83,6.81-29.62,38.25-35,43.17-35.7a10.87,10.87,0,0,1,14-6.35c.24.09.47.18.7.29l22.34,10.23a36.38,36.38,0,0,1,19.34,21.59l3.32,10.12,1.66,67.92L245.91,459l18,27C168,538.67,166.86,549.5,166.55,549.5Z" transform="translate(-95.76 0)"/><path class="cls-2" d="M319.66,718H326l24.64-10,13.21,10h0A28.15,28.15,0,0,1,392,746.17v.91H319.66Z" transform="translate(-95.76 0)"/><path class="cls-1" d="M370.18,407.38A14.77,14.77,0,0,0,350,412.63a14.52,14.52,0,0,0-1.11,2.36l-33.71,1.31L310.61,432l47.92,2.45a14.84,14.84,0,0,0,11.65-27.07Z" transform="translate(-95.76 0)"/><path class="cls-7" d="M342.49,436.15l-34.62-.44-4.39,0L233,434.77s-19.13-18.25-35.78-37l2.33-16.89a69,69,0,0,1,23.13-42.71c23.86,15.94,37.7,47.49,37.7,47.49L283.61,396h0A101.55,101.55,0,0,1,330,409.58l7.63,4.42Z" transform="translate(-95.76 0)"/><path class="cls-2" d="M596.91,734.62l-11.52,2.85-4.74-10.37-2.58,12.17-30.56,7.54a7.07,7.07,0,0,1-7-11.55l20.24-22.88-2.71-11,26-4.8Z" transform="translate(-95.76 0)"/><path class="cls-2" d="M474.87,738.18l-11-4.49,2.28-11.17-9.26,8.32L427.76,719a7.08,7.08,0,0,1,1.15-13.46l29.83-6.57L463,688.44l23.88,11.45Z" transform="translate(-95.76 0)"/><path class="cls-6" d="M436.61,432.5h-9a36.54,36.54,0,0,1-36.5-36.5v-.5h82v.5A36.54,36.54,0,0,1,436.61,432.5Z" transform="translate(-95.76 0)"/><path class="cls-5" d="M427.61,382.5c0,2.49-4.5,4.5-4.5,4.5s-4.5-2-4.5-4.5,4.5-4.5,4.5-4.5S427.61,380,427.61,382.5Z" transform="translate(-95.76 0)"/><path class="cls-5" d="M454.61,382.5c0,2.49-4.5,4.5-4.5,4.5s-4.5-2-4.5-4.5,4.5-4.5,4.5-4.5S454.61,380,454.61,382.5Z" transform="translate(-95.76 0)"/><path class="cls-5" d="M436.61,391.5c0,2.49-4.5,4.5-4.5,4.5s-4.5-2-4.5-4.5,4.5-4.5,4.5-4.5S436.61,389,436.61,391.5Z" transform="translate(-95.76 0)"/><circle class="cls-5" cx="309.35" cy="368.5" r="4.5"/><path class="cls-6" d="M339.67,358.83l71,9.8a4.79,4.79,0,0,1-1.31,9.5,3,3,0,0,1-.43-.08l-69.79-16.18a1.55,1.55,0,0,1,.56-3Z" transform="translate(-95.76 0)"/><path class="cls-3" d="M425.91,135.21V0h-9V135.21a49.5,49.5,0,0,0-45,49.29V198h31.5a18,18,0,1,0,36,0h31.5V184.5A49.5,49.5,0,0,0,425.91,135.21Z" transform="translate(-95.76 0)"/><path class="cls-3" d="M541.79,101.41V0H535V101.41a37.11,37.11,0,0,0-33.75,37V148.5h23.62a13.5,13.5,0,0,0,27,0h23.63V138.37A37.13,37.13,0,0,0,541.79,101.41Z" transform="translate(-95.76 0)"/><path class="cls-3" d="M313.79,101.41V0H307V101.41a37.11,37.11,0,0,0-33.75,37V148.5h23.62a13.5,13.5,0,0,0,27,0h23.63V138.37A37.13,37.13,0,0,0,313.79,101.41Z" transform="translate(-95.76 0)"/><path class="cls-2" d="M720.05,238.43c-6.37-7.43-9.4-17.29-14.49-25.72s-13.95-16-23.31-14c-6.45,1.35-11.44,7.05-14,13.4s-3,13.34-3.44,20.2c.15-14.09-9.13-27.75-21.92-32.25s-28.1.52-36.13,11.84a19.53,19.53,0,0,0-25.94-.54c-7.19,6.42-8.78,18.65-3.49,26.84s16.73,11.25,25.13,6.71l3,2.73c-1.67,5.85,1.57,12.75,7,15,4.42,1.78,10.66,1.48,12.32,6.12,1.15,3.24-1,6.7-3.31,9.19s-5,5.06-5.3,8.51c-.41,5.2,5,8.84,9.84,9.94,11.78,2.64,24.85-2.81,31.64-13.2.13-.21.27-.41.42-.61a45.45,45.45,0,0,0,9.15-34.77c-.38-2.4,0-4.19,1.66-4.76,7.16-2.46,27.22,2.7,33.29,7.37s10.93,10.83,16.77,15.8,13.3,8.79,20.72,7.44c5.95-1.08,11-5.4,14.41-10.6s5.36-11.28,7.11-17.31C748.07,253.29,730.07,250.11,720.05,238.43Z" transform="translate(-95.76 0)"/></svg>